<svg width="143" height="48" viewBox="0 0 143 48" fill="none" xmlns="http://www.w3.org/2000/svg">
<g filter="url(#filter0_d_60_758)">
<path d="M30.1636 27.3496C30.1636 29.425 29.8589 31.3027 29.2495 32.9828C28.64 34.6629 27.7588 36.0959 26.6058 37.2818C25.4528 38.4678 24.0362 39.382 22.3561 40.0243C20.6761 40.6667 18.7654 40.9879 16.6241 40.9879C15.7346 40.9879 14.804 40.9467 13.8322 40.8644C12.8604 40.782 11.905 40.675 10.9661 40.5432C10.0273 40.4114 9.12957 40.2549 8.27306 40.0738C7.41654 39.8926 6.65886 39.7032 6 39.5055V3.18594L13.3627 2V14.9466C14.1863 14.5842 15.0428 14.3042 15.9323 14.1065C16.8217 13.9089 17.7771 13.81 18.7983 13.81C20.6431 13.81 22.2738 14.1312 23.6903 14.7736C25.1069 15.416 26.2928 16.3302 27.2482 17.5161C28.2035 18.7021 28.9283 20.1268 29.4224 21.7904C29.9165 23.4541 30.1636 25.3071 30.1636 27.3496ZM22.6526 27.1519C22.6526 22.4081 20.9067 20.0362 17.4147 20.0362C16.657 20.0362 15.9076 20.1351 15.1664 20.3327C14.4251 20.5304 13.8239 20.7775 13.3627 21.0739V34.4652C13.7251 34.5311 14.1863 34.5888 14.7463 34.6382C15.3064 34.6876 15.9158 34.7123 16.5747 34.7123C18.5842 34.7123 20.0996 34.0205 21.1208 32.6369C22.142 31.2533 22.6526 29.425 22.6526 27.1519Z" fill="#2A303C"/>
<path d="M43.9009 6.8426C43.9009 8.19326 43.4644 9.25567 42.5914 10.0298C41.7184 10.804 40.6889 11.1911 39.503 11.1911C38.317 11.1911 37.2876 10.804 36.4146 10.0298C35.5416 9.25567 35.1051 8.19326 35.1051 6.8426C35.1051 5.49195 35.5416 4.42954 36.4146 3.65538C37.2876 2.88122 38.317 2.49414 39.503 2.49414C40.6889 2.49414 41.7184 2.88122 42.5914 3.65538C43.4644 4.42954 43.9009 5.49195 43.9009 6.8426ZM43.2091 40.3455H35.8463V14.3536H43.2091V40.3455Z" fill="#2A303C"/>
<path d="M57.5885 35.0582C58.9392 35.0582 59.8945 34.9264 60.4545 34.6628C61.0146 34.3993 61.2946 33.8887 61.2946 33.131C61.2946 32.538 60.9322 32.0192 60.2075 31.5744C59.4827 31.1297 58.3791 30.6273 56.8967 30.0673C55.7437 29.6391 54.6978 29.1943 53.7589 28.7331C52.82 28.2719 52.0212 27.7201 51.3623 27.0777C50.7034 26.4354 50.1928 25.6694 49.8304 24.78C49.4681 23.8905 49.2869 22.8199 49.2869 21.568C49.2869 19.1303 50.1928 17.2031 52.0047 15.7866C53.8165 14.37 56.3037 13.6617 59.4663 13.6617C61.0475 13.6617 62.5629 13.8018 64.0124 14.0818C65.4619 14.3618 66.6149 14.6665 67.4714 14.9959L66.1866 20.728C65.3301 20.4315 64.3994 20.168 63.3947 19.9374C62.3899 19.7068 61.2616 19.5915 60.0098 19.5915C57.7038 19.5915 56.5508 20.2339 56.5508 21.5186C56.5508 21.8151 56.6002 22.0787 56.699 22.3093C56.7979 22.5399 56.9955 22.7622 57.292 22.9763C57.5885 23.1905 57.9921 23.4211 58.5027 23.6682C59.0133 23.9152 59.6639 24.1952 60.4545 24.4917C62.0687 25.0929 63.4029 25.6777 64.4571 26.2624C65.5113 26.8471 66.3431 27.4731 66.9525 28.1484C67.562 28.8237 67.9902 29.5732 68.2373 30.3885C68.4844 31.2121 68.6079 32.1674 68.6079 33.2463C68.6079 35.8076 67.6443 37.7512 65.7172 39.0607C63.79 40.3784 61.064 41.0291 57.5391 41.0291C55.2331 41.0291 53.3142 40.8314 51.7823 40.4361C50.2505 40.0408 49.1881 39.7113 48.5951 39.4478L49.8304 33.4687C51.0823 33.9628 52.3671 34.3499 53.6848 34.6299C55.0025 34.9099 56.3037 35.0499 57.5885 35.0499V35.0582Z" fill="#2A303C"/>
<path d="M88.3736 26.5589C88.3736 24.187 88.0689 22.507 87.4595 21.5187C86.85 20.5304 85.8041 20.0362 84.3217 20.0362C83.8605 20.0362 83.3828 20.061 82.8886 20.1104C82.3945 20.1598 81.9168 20.2174 81.4556 20.2833V40.3455H74.0929V15.2431C74.7188 15.0783 75.4518 14.9054 76.2918 14.7242C77.1319 14.543 78.0213 14.3783 78.9602 14.2301C79.8991 14.0818 80.8627 13.9665 81.851 13.8842C82.8392 13.8018 83.8111 13.7606 84.7664 13.7606C86.6441 13.7606 88.1678 13.9995 89.3372 14.4771C90.5067 14.9548 91.4703 15.5231 92.228 16.1819C93.2821 15.4242 94.4928 14.8313 95.8599 14.403C97.227 13.9747 98.4871 13.7606 99.6401 13.7606C101.716 13.7606 103.42 14.0489 104.754 14.6254C106.089 15.2019 107.151 16.0172 107.942 17.0714C108.732 18.1256 109.276 19.3774 109.572 20.8269C109.869 22.2764 110.017 23.8906 110.017 25.6695V40.3455H102.654V26.5589C102.654 24.187 102.35 22.507 101.74 21.5187C101.131 20.5304 100.085 20.0362 98.6024 20.0362C98.2071 20.0362 97.6553 20.1351 96.947 20.3327C96.2388 20.5304 95.654 20.7775 95.1928 21.0739C95.4234 21.8316 95.5717 22.6305 95.6376 23.4705C95.7034 24.3106 95.7364 25.2083 95.7364 26.1636V40.3455H88.3736V26.5589Z" fill="#2A303C"/>
<path d="M141 27.3001C141 29.3426 140.703 31.2121 140.111 32.9086C139.518 34.6052 138.661 36.0547 137.541 37.2571C136.421 38.4595 135.078 39.3901 133.514 40.049C131.949 40.7079 130.195 41.0373 128.251 41.0373C126.307 41.0373 124.603 40.7079 123.038 40.049C121.473 39.3901 120.131 38.4595 119.011 37.2571C117.891 36.0547 117.018 34.6052 116.392 32.9086C115.766 31.2121 115.453 29.3426 115.453 27.3001C115.453 25.2576 115.774 23.3964 116.416 21.7163C117.059 20.0362 117.948 18.6032 119.085 17.4172C120.221 16.2313 121.572 15.3089 123.137 14.65C124.701 13.9912 126.406 13.6617 128.251 13.6617C130.096 13.6617 131.85 13.9912 133.415 14.65C134.98 15.3089 136.322 16.2313 137.442 17.4172C138.562 18.6032 139.435 20.0362 140.061 21.7163C140.687 23.3964 141 25.2576 141 27.3001ZM133.489 27.3001C133.489 25.027 133.036 23.2399 132.13 21.9386C131.224 20.6374 129.931 19.9868 128.251 19.9868C126.571 19.9868 125.27 20.6374 124.347 21.9386C123.425 23.2399 122.964 25.027 122.964 27.3001C122.964 29.5732 123.425 31.3768 124.347 32.711C125.27 34.0452 126.571 34.7123 128.251 34.7123C129.931 34.7123 131.224 34.0452 132.13 32.711C133.036 31.3768 133.489 29.5732 133.489 27.3001Z" fill="#2A303C"/>
</g>
<path d="M39.4864 11.2569C41.9653 11.2569 43.9749 9.24735 43.9749 6.76844C43.9749 4.28952 41.9653 2.27997 39.4864 2.27997C37.0075 2.27997 34.9979 4.28952 34.9979 6.76844C34.9979 9.24735 37.0075 11.2569 39.4864 11.2569Z" fill="url(#paint0_linear_60_758)"/>
<defs>
<filter id="filter0_d_60_758" x="0" y="0" width="143" height="47.0373" filterUnits="userSpaceOnUse" color-interpolation-filters="sRGB">
<feFlood flood-opacity="0" result="BackgroundImageFix"/>
<feColorMatrix in="SourceAlpha" type="matrix" values="0 0 0 0 0 0 0 0 0 0 0 0 0 0 0 0 0 0 127 0" result="hardAlpha"/>
<feOffset dx="-2" dy="2"/>
<feGaussianBlur stdDeviation="2"/>
<feColorMatrix type="matrix" values="0 0 0 0 0.137255 0 0 0 0 0.121569 0 0 0 0 0.12549 0 0 0 0.7 0"/>
<feBlend mode="normal" in2="BackgroundImageFix" result="effect1_dropShadow_60_758"/>
<feBlend mode="normal" in="SourceGraphic" in2="effect1_dropShadow_60_758" result="shape"/>
</filter>
<linearGradient id="paint0_linear_60_758" x1="35.0062" y1="6.76844" x2="43.9749" y2="6.76844" gradientUnits="userSpaceOnUse">
<stop stop-color="white"/>
<stop offset="0.13" stop-color="#FBDBCE"/>
<stop offset="0.29" stop-color="#F8B69B"/>
<stop offset="0.45" stop-color="#F59770"/>
<stop offset="0.61" stop-color="#F37F4F"/>
<stop offset="0.75" stop-color="#F26E37"/>
<stop offset="0.89" stop-color="#F16328"/>
<stop offset="1" stop-color="#F16024"/>
</linearGradient>
</defs>
</svg>
